<mxfile host="65bd71144e">
    <diagram id="KLyi4DOJivpb_Nc7WSKG" name="Page-1">
        <mxGraphModel dx="1160" dy="784" grid="1" gridSize="10" guides="1" tooltips="1" connect="1" arrows="1" fold="1" page="1" pageScale="1" pageWidth="850" pageHeight="1100" math="0" shadow="0">
            <root>
                <mxCell id="0"/>
                <mxCell id="1" parent="0"/>
                <mxCell id="25" value="" style="rounded=0;whiteSpace=wrap;html=1;strokeColor=default;" vertex="1" parent="1">
                    <mxGeometry x="630" y="320" width="20" height="30" as="geometry"/>
                </mxCell>
                <mxCell id="26" value="" style="endArrow=none;html=1;strokeWidth=1;exitX=1;exitY=0.25;exitDx=0;exitDy=0;startArrow=classic;startFill=1;" edge="1" parent="1" source="25">
                    <mxGeometry width="50" height="50" relative="1" as="geometry">
                        <mxPoint x="680" y="330" as="sourcePoint"/>
                        <mxPoint x="740" y="310" as="targetPoint"/>
                    </mxGeometry>
                </mxCell>
                <mxCell id="27" value="" style="endArrow=none;html=1;strokeWidth=1;exitX=1;exitY=0.75;exitDx=0;exitDy=0;startArrow=classic;startFill=1;" edge="1" parent="1" source="25">
                    <mxGeometry width="50" height="50" relative="1" as="geometry">
                        <mxPoint x="680" y="345" as="sourcePoint"/>
                        <mxPoint x="740" y="430" as="targetPoint"/>
                    </mxGeometry>
                </mxCell>
                <mxCell id="23" value="" style="rounded=0;whiteSpace=wrap;html=1;strokeColor=default;" vertex="1" parent="1">
                    <mxGeometry x="630" y="380" width="20" height="30" as="geometry"/>
                </mxCell>
                <mxCell id="13" value="User Device" style="rounded=0;whiteSpace=wrap;html=1;verticalAlign=bottom;strokeColor=default;" vertex="1" parent="1">
                    <mxGeometry x="10" y="330" width="170" height="120" as="geometry"/>
                </mxCell>
                <mxCell id="12" value="Image Processing Unit" style="rounded=0;whiteSpace=wrap;html=1;verticalAlign=bottom;strokeColor=default;horizontal=1;" vertex="1" parent="1">
                    <mxGeometry x="240" y="220" width="300" height="230" as="geometry"/>
                </mxCell>
                <mxCell id="10" value="Pipelined" style="rounded=0;whiteSpace=wrap;html=1;verticalAlign=top;strokeColor=default;dashed=1;dashPattern=1 2;horizontal=0;" vertex="1" parent="1">
                    <mxGeometry x="330" y="230" width="200" height="190" as="geometry"/>
                </mxCell>
                <mxCell id="2" value="Perspective Projector" style="rounded=0;whiteSpace=wrap;html=1;" vertex="1" parent="1">
                    <mxGeometry x="360" y="280" width="160" height="30" as="geometry"/>
                </mxCell>
                <mxCell id="3" value="Foreground Detector" style="rounded=0;whiteSpace=wrap;html=1;" vertex="1" parent="1">
                    <mxGeometry x="360" y="320" width="160" height="30" as="geometry"/>
                </mxCell>
                <mxCell id="4" value="Coupler" style="rounded=0;whiteSpace=wrap;html=1;horizontal=1;verticalAlign=top;" vertex="1" parent="1">
                    <mxGeometry x="360" y="360" width="160" height="50" as="geometry"/>
                </mxCell>
                <mxCell id="20" style="edgeStyle=none;html=1;exitX=0;exitY=0.25;exitDx=0;exitDy=0;entryX=1;entryY=0.25;entryDx=0;entryDy=0;startArrow=none;startFill=0;" edge="1" parent="1" source="5" target="6">
                    <mxGeometry relative="1" as="geometry"/>
                </mxCell>
                <mxCell id="5" value="Stream&lt;br&gt;Receiver" style="rounded=0;whiteSpace=wrap;html=1;horizontal=1;verticalAlign=top;" vertex="1" parent="1">
                    <mxGeometry x="250" y="340" width="70" height="80" as="geometry"/>
                </mxCell>
                <mxCell id="6" value="Streamer" style="rounded=0;whiteSpace=wrap;html=1;horizontal=1;verticalAlign=top;" vertex="1" parent="1">
                    <mxGeometry x="100" y="340" width="70" height="80" as="geometry"/>
                </mxCell>
                <mxCell id="18" style="edgeStyle=none;html=1;exitX=1;exitY=0.5;exitDx=0;exitDy=0;entryX=0;entryY=0.5;entryDx=0;entryDy=0;startArrow=none;startFill=0;" edge="1" parent="1" source="7" target="14">
                    <mxGeometry relative="1" as="geometry"/>
                </mxCell>
                <mxCell id="7" value="Screen&lt;br&gt;Capture" style="rounded=0;whiteSpace=wrap;html=1;" vertex="1" parent="1">
                    <mxGeometry x="20" y="370" width="70" height="50" as="geometry"/>
                </mxCell>
                <mxCell id="14" value="Beam&lt;br&gt;Projector" style="rounded=0;whiteSpace=wrap;html=1;" vertex="1" parent="1">
                    <mxGeometry x="580" y="370" width="70" height="50" as="geometry"/>
                </mxCell>
                <mxCell id="15" value="Camera Capture" style="rounded=0;whiteSpace=wrap;html=1;" vertex="1" parent="1">
                    <mxGeometry x="360" y="240" width="160" height="30" as="geometry"/>
                </mxCell>
                <mxCell id="19" style="edgeStyle=elbowEdgeStyle;html=1;exitX=0;exitY=0.5;exitDx=0;exitDy=0;entryX=1;entryY=0.5;entryDx=0;entryDy=0;startArrow=none;startFill=0;" edge="1" parent="1" source="16" target="15">
                    <mxGeometry relative="1" as="geometry">
                        <Array as="points">
                            <mxPoint x="560" y="300"/>
                        </Array>
                    </mxGeometry>
                </mxCell>
                <mxCell id="16" value="Camera" style="rounded=0;whiteSpace=wrap;html=1;" vertex="1" parent="1">
                    <mxGeometry x="580" y="310" width="70" height="50" as="geometry"/>
                </mxCell>
                <mxCell id="21" value="" style="endArrow=none;html=1;strokeWidth=2;" edge="1" parent="1">
                    <mxGeometry width="50" height="50" relative="1" as="geometry">
                        <mxPoint x="370" y="390" as="sourcePoint"/>
                        <mxPoint x="510" y="390" as="targetPoint"/>
                    </mxGeometry>
                </mxCell>
                <mxCell id="22" value="" style="endArrow=classic;html=1;strokeWidth=1;exitX=1;exitY=0.25;exitDx=0;exitDy=0;endFill=1;" edge="1" parent="1" source="23">
                    <mxGeometry width="50" height="50" relative="1" as="geometry">
                        <mxPoint x="680" y="390" as="sourcePoint"/>
                        <mxPoint x="740" y="380" as="targetPoint"/>
                    </mxGeometry>
                </mxCell>
                <mxCell id="24" value="" style="endArrow=classic;html=1;strokeWidth=1;exitX=1;exitY=0.75;exitDx=0;exitDy=0;endFill=1;" edge="1" parent="1" source="23">
                    <mxGeometry width="50" height="50" relative="1" as="geometry">
                        <mxPoint x="680" y="405" as="sourcePoint"/>
                        <mxPoint x="740" y="410" as="targetPoint"/>
                    </mxGeometry>
                </mxCell>
                <mxCell id="28" value="Flow&lt;br&gt;Control" style="text;html=1;strokeColor=none;fillColor=none;align=center;verticalAlign=middle;whiteSpace=wrap;rounded=0;" vertex="1" parent="1">
                    <mxGeometry x="180" y="320" width="60" height="40" as="geometry"/>
                </mxCell>
            </root>
        </mxGraphModel>
    </diagram>
</mxfile>
